<mxfile host="app.diagrams.net" modified="2024-01-07T12:36:23.911Z" agent="Mozilla/5.0 (X11; Linux x86_64) AppleWebKit/537.36 (KHTML, like Gecko) Chrome/120.0.0.0 Safari/537.36" version="22.1.17" etag="n26aPG_A65TMj_XRC_6A" type="github">
  <diagram name="Page-1" id="UwhsqPQnyYJUXorYnKAV">
    <mxGraphModel>
      <root>
        <mxCell id="0" />
        <mxCell id="1" parent="0" />
      </root>
    </mxGraphModel>
  </diagram>
</mxfile>
